<svg id="Layer_1" data-name="Layer 1" xmlns="http://www.w3.org/2000/svg" viewBox="0 0 400 300"><defs><style>.cls-1{fill:#ff6c0e;}</style></defs><title>Pickit_Isotipo-Color</title><path class="cls-1" d="M340.88,58.93c-5.57-4.41-17.73-4.88-17.73-4.88s-4.58-14.88-20-19.73c-6-1.88-10.85-2.87-15-2.51-3,.26-3.16,2.54-2.87,4.55a16.73,16.73,0,0,0,2.41,7,23.22,23.22,0,0,0,4.53,5.14c6.88,6,11,4.09,16.71,5.62,5.37,1.44,6.66,5,6.66,5a10.53,10.53,0,0,0-5.55-3.22,33.3,33.3,0,0,0-4.7-.74c-4.46-.34-9.46.53-15.1-4.38a21.12,21.12,0,0,1-4.57-5,1.39,1.39,0,0,0-1.5-.63l-.4.1c-2,.47-3.2,1.28-2.12,3.84,1.29,3.05,5.16,6.23,9.76,8.25,4.88,2.16,10.75,2,15,3.05a11.85,11.85,0,0,1,6.29,3.6A18.68,18.68,0,0,0,310.07,69a19.79,19.79,0,0,0-1.14,7.37S267.78,63.3,236.71,53.64c-51.52-16-88.78,21.85-112,49.92-40.55,49-70.54,38.06-80,34.92A2.87,2.87,0,0,0,41,140.54a2.9,2.9,0,0,0,1.23,3.05c29.51,19,58.26,10.17,101.17-22,26.23-19.67,40.62-19.11,40.62-19.11-.05,31.8,17.07,26.18,20.29,57.26,1.74,16.92-5.25,30.06-11,40.42-1.94,3.52-.73,8,2.12,10.81,10.5,10.44,35.65,34.17,34,51.62a3.38,3.38,0,0,0,2.13,3.07l6.13,2.33c3,1.16,5.77-1.37,5.64-4.62-.31-7.68-4.53-22.2-15.82-37.18-15.84-21-15-30.39-1.66-45.52,11.33-12.81,23-22.44,27.41-43.87,4.14-20.24-5.56-33.45-10.89-39a.4.4,0,0,1,.53-.6,37.35,37.35,0,0,1,16.33,33.25,117.91,117.91,0,0,0,25.62-5.16,3.38,3.38,0,0,1,4.29,4.29,34.35,34.35,0,0,1-12.54,16.23,6.43,6.43,0,0,0-2.92,4.43l-1.14,5.59a3.17,3.17,0,0,0,4.57,3.46,46.42,46.42,0,0,0,18.63-16.45,60.14,60.14,0,0,0,8.71-21.47A21,21,0,0,1,309.79,111c3.56-3.84,9.23-9.64,17-16.88,4.1-3.79,22.75,1.57,26.7-1.84,2.82-2.45,5.51-9.61,5.51-9.61C358.45,80.3,348.83,65.22,340.88,58.93Z"/></svg>